<svg version="1.1" id="Layer_1" xmlns="http://www.w3.org/2000/svg" xmlns:xlink="http://www.w3.org/1999/xlink" x="0px" y="0px"
	 width="100%" viewBox="0 0 1200 880" enable-background="new 0 0 1200 880" xml:space="preserve">
<path fill="#000000" opacity="1.000000" stroke="none" 
	d="
M859.000000,881.000000 
	C572.700989,881.000000 286.901917,881.000000 1.051443,881.000000 
	C1.051443,587.736145 1.051443,294.472321 1.051443,1.104236 
	C400.882507,1.104236 800.765015,1.104236 1200.823730,1.104236 
	C1200.823730,294.333252 1200.823730,587.666626 1200.823730,881.000000 
	C1087.138794,881.000000 973.319397,881.000000 859.000000,881.000000 
M592.487793,651.009644 
	C588.371460,655.775696 583.830627,660.254639 580.326721,665.434998 
	C578.697998,667.843018 577.839905,672.186157 578.945435,674.586975 
	C579.847046,676.544922 584.165161,677.772339 587.007996,677.848633 
	C599.664246,678.188110 612.334656,678.014404 625.000000,677.992432 
	C633.824463,677.977112 637.322693,675.610718 640.069458,667.201355 
	C649.341553,638.814148 661.666443,611.851746 677.729980,586.666382 
	C688.293213,570.104980 700.160583,554.630005 715.394043,541.902405 
	C719.445251,538.517517 723.458862,534.215698 725.486633,529.477661 
	C728.855713,521.605164 730.602905,513.038757 733.035706,504.765381 
	C734.389709,500.160614 735.748718,495.557281 737.105469,490.953278 
	C737.783447,490.885590 738.461426,490.817902 739.139465,490.750214 
	C742.480225,497.892975 746.462463,504.812012 749.046143,512.218872 
	C758.164246,538.358704 756.512451,564.873108 750.324402,591.285034 
	C744.599915,615.718445 734.314392,638.407349 722.789001,660.578979 
	C721.425598,663.201721 720.310974,666.037415 719.613342,668.903931 
	C718.423523,673.792542 721.662537,677.901794 726.664062,677.947083 
	C737.661865,678.046814 748.661682,678.030579 759.659790,677.947327 
	C764.460449,677.911011 767.967224,675.919800 769.173462,670.863586 
	C769.711365,668.609192 770.491699,666.413513 771.128906,664.181702 
	C773.769836,654.930603 776.352844,645.662598 779.051208,636.428284 
	C780.296387,632.167236 782.474609,628.958435 787.630859,628.857422 
	C795.260925,628.707947 802.886658,628.306091 810.512207,627.966553 
	C815.852417,627.728821 817.894348,625.799805 817.972839,620.781372 
	C818.337097,597.480896 818.939209,574.179504 818.920654,550.878906 
	C818.898499,523.081970 818.383423,495.284668 817.972351,467.489136 
	C817.822388,457.353424 817.420471,447.219879 817.022278,437.089752 
	C816.402832,421.326447 816.136047,405.530853 814.869995,389.817413 
	C813.887939,377.628479 812.634888,365.287994 809.687012,353.467560 
	C803.837463,330.012207 789.002258,314.560059 765.138733,308.561462 
	C744.862427,303.464539 724.494080,306.373566 704.186584,308.222504 
	C686.040527,309.874634 667.977478,312.587006 649.808960,313.802826 
	C633.134460,314.918671 616.368835,314.699188 599.642090,314.999664 
	C575.634521,315.430969 551.968140,312.263489 528.429443,307.972656 
	C489.244598,300.829803 451.399872,289.233765 414.878448,273.352661 
	C410.249176,271.339630 405.835266,268.831421 400.276428,266.024963 
	C402.773346,264.180969 403.996307,263.173981 405.317322,262.318359 
	C417.976379,254.119095 430.941528,246.353104 443.226227,237.628357 
	C452.174561,231.273178 458.041901,221.986282 462.293793,211.919159 
	C463.104584,209.999481 462.027527,207.282471 461.821503,204.933334 
	C459.847015,205.444473 457.810272,205.794662 455.920593,206.525192 
	C454.724548,206.987579 453.727203,207.990265 452.675629,208.796173 
	C430.496185,225.793793 406.136322,235.724426 377.505676,233.101593 
	C359.931641,231.491653 343.578979,226.609131 329.078979,216.567337 
	C310.952911,204.014374 298.440369,186.869324 290.024994,166.619843 
	C288.877655,163.859070 288.033539,160.900772 286.443115,158.422806 
	C285.508087,156.965958 283.377686,156.276321 281.784973,155.241623 
	C280.857758,156.821350 279.235321,158.356491 279.130646,159.988953 
	C278.783936,165.394257 278.749634,170.846451 279.021118,176.259308 
	C279.710541,190.004074 282.647797,203.302444 289.315765,215.391861 
	C293.538391,223.047668 298.849640,230.105194 303.707550,237.407806 
	C307.893280,243.699921 307.967743,245.803146 303.584534,251.590317 
	C301.383118,254.496841 298.844116,257.145081 296.543060,259.979309 
	C292.220001,265.303986 288.667786,270.875336 287.859009,278.057739 
	C287.392242,282.202972 286.223602,286.681183 284.002960,290.128326 
	C279.803528,296.647125 274.782074,302.667603 269.798431,308.641754 
	C264.109802,315.461029 263.312439,322.222900 268.166779,329.606140 
	C270.251251,332.776550 273.004028,335.504211 275.129639,338.651550 
	C281.598877,348.230408 289.988434,352.861908 302.040253,352.216583 
	C315.206512,351.511566 326.026031,357.449738 333.140381,368.653259 
	C338.202362,376.624817 342.529785,385.096344 346.752563,393.560486 
	C356.327637,412.752716 366.002289,431.900085 379.087982,448.992950 
	C384.682465,456.300659 390.145233,463.441437 392.128265,472.687439 
	C395.977997,490.636871 395.153931,508.667023 392.517609,526.581726 
	C389.711487,545.650146 384.682648,564.226135 377.817200,582.278503 
	C368.879120,605.780884 357.820160,628.250977 345.559052,650.187195 
	C342.054474,656.457214 338.988159,663.235229 337.282593,670.164734 
	C335.906219,675.756775 338.733307,677.945679 344.637299,677.974365 
	C356.969055,678.034302 369.301270,678.009888 381.633270,677.995178 
	C390.235565,677.984985 393.806122,674.150635 395.042969,665.411682 
	C397.409424,648.692200 399.561768,631.889526 403.104523,615.401001 
	C409.708496,584.664856 419.074585,554.704651 432.603638,526.247437 
	C436.274689,518.525696 441.542450,511.548889 446.238220,504.334869 
	C448.335297,501.113190 450.788574,500.991699 454.113647,503.378418 
	C473.685455,517.427002 488.940613,534.888489 498.632324,557.160950 
	C511.585571,586.928772 513.402161,617.761658 508.388458,649.383179 
	C507.170532,657.064575 505.979095,664.757935 505.109924,672.483459 
	C504.711334,676.026428 506.628448,678.019958 510.488495,678.000671 
	C524.153259,677.932556 537.819397,678.063721 551.483276,677.933044 
	C558.109558,677.869690 561.775513,673.322998 560.572571,666.948059 
	C557.197205,649.060974 553.531738,631.182983 548.879028,613.592773 
	C540.863892,583.290405 531.594543,553.319092 523.632935,523.003601 
	C515.477478,491.950195 536.064331,465.926270 568.100281,466.045380 
	C584.669189,466.106964 600.145752,471.127014 615.150879,477.662231 
	C618.485046,479.114349 620.925903,478.736237 623.882874,476.748993 
	C628.408630,473.707458 633.117188,470.778870 638.098816,468.606567 
	C649.700012,463.547699 661.560852,465.795532 669.779724,474.326172 
	C678.623352,483.505249 679.595093,495.148285 677.471863,506.565063 
	C672.787842,531.752197 663.135315,555.365479 650.497498,577.515808 
	C635.020325,604.642578 614.301025,627.857605 592.487793,651.009644 
M347.017059,200.510284 
	C362.742767,208.525742 379.099518,212.372299 396.978760,210.158478 
	C421.651611,207.103485 441.424469,195.756836 455.889160,175.955078 
	C469.799744,156.911819 474.873566,135.207047 471.023895,111.769173 
	C467.274200,88.939819 456.178253,70.428429 437.414642,56.750202 
	C421.544952,45.181633 403.800049,40.325424 384.085541,40.845222 
	C362.525818,41.413673 344.133820,49.183151 328.914795,63.799110 
	C306.612823,85.217339 298.856873,112.019089 304.234283,142.098633 
	C308.846680,167.898834 323.453491,187.235306 347.017059,200.510284 
M819.906738,724.035889 
	C806.733521,725.901733 796.183777,732.205872 788.418396,742.981628 
	C773.940613,763.071777 772.724609,785.286804 779.391724,808.114258 
	C783.732483,822.976318 793.678101,833.383667 808.890320,838.098938 
	C826.506653,843.559387 843.736084,841.987244 860.364868,834.582031 
	C865.106262,832.470520 869.136597,829.152832 869.103882,822.506287 
	C868.891907,779.347656 869.006470,736.187439 868.980530,693.027771 
	C868.976685,686.635254 868.363647,686.073669 862.205872,686.009094 
	C859.540039,685.981140 856.866211,686.140808 854.209045,685.987793 
	C850.270813,685.761047 848.929749,687.610962 848.973877,691.381287 
	C849.094788,701.711487 849.023071,712.044128 848.984314,722.375671 
	C848.977173,724.290222 848.768066,726.203918 848.586548,729.202332 
	C839.387695,723.900635 830.157532,723.620667 819.906738,724.035889 
M166.071014,835.521729 
	C175.258575,840.739868 185.256210,841.461548 195.527206,841.024292 
	C212.275192,840.311401 225.038727,833.303284 232.957993,818.142517 
	C241.635742,801.529663 241.231232,783.800049 238.969345,766.056335 
	C236.270004,744.880981 224.255630,726.766663 199.307266,723.533325 
	C178.155533,720.791931 154.832886,729.505066 146.949203,752.802368 
	C140.809494,770.946106 140.681076,789.368469 145.498291,807.641418 
	C148.513870,819.080200 154.571304,829.034851 166.071014,835.521729 
M395.654663,723.764648 
	C389.233948,723.861450 382.677216,723.154785 376.419373,724.213867 
	C360.992004,726.824890 349.779205,735.353271 343.820770,750.148804 
	C336.761658,767.677490 336.358612,785.786438 340.345673,803.902100 
	C343.276642,817.219116 349.647736,828.748291 362.192780,835.785461 
	C371.419434,840.961182 381.455780,841.363159 391.648041,840.999939 
	C409.681732,840.357178 423.927368,830.600769 430.468689,814.586853 
	C437.662598,796.975342 437.961945,778.548584 433.735382,760.298218 
	C429.167694,740.574768 417.702271,727.055603 395.654663,723.764648 
M685.505371,826.021118 
	C688.023621,821.768188 691.103210,817.745361 692.958618,813.220642 
	C699.466553,797.350159 699.324768,780.711182 696.634094,764.212952 
	C694.662903,752.126038 690.090027,740.786316 679.831177,732.965759 
	C666.809753,723.039490 652.200806,721.008667 636.463745,724.682190 
	C620.523132,728.403198 610.290527,738.133789 604.993896,753.458557 
	C599.461426,769.465393 599.479736,785.952393 602.477844,802.157349 
	C605.792114,820.071533 614.673828,834.462891 633.936890,839.439636 
	C644.267761,842.108704 654.733887,841.875000 664.980652,839.407532 
	C672.968384,837.484009 679.935425,833.321655 685.505371,826.021118 
M103.926674,745.771484 
	C104.950058,750.757080 106.779457,755.730225 106.856888,760.730469 
	C107.186989,782.048584 106.909294,803.375244 107.030586,824.697815 
	C107.116692,839.833679 104.815895,837.736023 120.770943,838.052490 
	C125.316841,838.142639 127.037384,836.351807 127.023399,831.907532 
	C126.941101,805.753540 127.168213,779.597229 126.904594,753.445618 
	C126.760223,739.123474 118.441933,729.347107 104.841431,725.764282 
	C85.537010,720.678833 66.680840,722.801453 48.040791,728.896545 
	C40.955315,731.213501 40.010300,732.665649 40.007072,740.077942 
	C39.994465,769.064209 39.943638,798.050720 40.026978,827.036743 
	C40.062824,839.505615 38.410938,837.870789 50.843159,837.980652 
	C59.413887,838.056396 59.985786,837.447021 59.991524,828.976929 
	C60.009811,801.989685 60.102772,775.001770 59.915211,748.015808 
	C59.880520,743.024292 62.052128,740.068787 66.274330,738.485657 
	C75.750679,734.932495 85.502457,734.439880 94.952278,738.128113 
	C98.226807,739.406311 100.704315,742.726501 103.926674,745.771484 
M498.009277,832.209351 
	C497.550110,836.525696 499.475067,838.385254 503.796997,838.018982 
	C505.782135,837.850769 507.793854,838.003418 509.793457,837.997559 
	C517.759705,837.974121 517.985168,837.781433 517.990234,829.885010 
	C518.007874,802.723145 518.101624,775.560669 517.920105,748.400024 
	C517.882263,742.750793 520.475830,739.351624 525.429016,738.174072 
	C530.695190,736.922180 536.194458,736.175903 541.605103,736.095520 
	C557.770142,735.855408 564.971924,743.236816 564.992188,759.521667 
	C565.018921,781.017822 564.866882,802.515137 565.043640,824.009827 
	C565.175964,840.094299 562.093445,837.830750 580.087036,837.988831 
	C583.470398,838.018555 584.988892,836.367554 584.954041,833.127319 
	C584.656677,805.505188 584.641724,777.875183 583.899963,750.264893 
	C583.577454,738.259583 576.807556,730.224426 565.189758,726.589050 
	C544.475952,720.107605 524.173828,722.634216 504.157990,729.630676 
	C499.883514,731.124817 497.891998,734.353333 497.918976,739.282898 
	C498.086731,769.943237 498.003143,800.604858 498.009277,832.209351 
M332.987488,742.446655 
	C334.185730,739.174988 335.880920,735.980408 336.405212,732.604126 
	C336.747406,730.400330 336.146637,726.736694 334.659424,725.795715 
	C329.016754,722.225647 321.291107,725.582031 319.161072,731.899719 
	C311.315857,755.168579 303.479584,778.440491 295.607574,801.700317 
	C294.998932,803.498657 294.139008,805.211975 292.860046,808.228699 
	C291.745453,805.733582 291.088165,804.507019 290.634125,803.209290 
	C282.745911,780.664856 274.852509,758.122192 267.027710,735.555725 
	C263.478333,725.319458 263.054840,724.949280 252.092651,724.993958 
	C251.426605,724.996643 250.760162,724.987610 250.094574,725.006958 
	C243.174637,725.207581 241.662064,727.225708 244.103180,733.682190 
	C256.479034,766.414490 269.042358,799.076538 281.264526,831.865845 
	C283.015808,836.564026 285.359650,838.755249 290.313782,838.021729 
	C291.455048,837.852722 292.651245,837.888367 293.805054,838.002625 
	C296.994415,838.318604 298.571594,836.803345 299.604645,833.849182 
	C303.327118,823.203857 307.232483,812.621948 311.118744,802.034485 
	C318.319702,782.416626 325.555908,762.811707 332.987488,742.446655 
M934.041016,763.213074 
	C936.370300,772.407166 942.475891,778.502014 950.553223,782.749817 
	C959.358582,787.380554 968.567139,791.288757 977.150635,796.283875 
	C984.460510,800.537781 986.492920,806.818848 985.241882,812.859985 
	C982.470398,826.242981 965.578857,831.259033 954.788757,825.785828 
	C950.516785,823.618958 946.610596,820.742004 942.460876,818.320129 
	C938.222229,815.846436 932.300842,816.662292 930.179993,819.857666 
	C927.756775,823.508545 929.018433,829.159546 932.977539,832.317993 
	C933.363708,832.626160 933.830994,832.830322 934.243652,833.107910 
	C946.747803,841.522156 960.675781,842.483521 974.897583,840.072998 
	C984.374023,838.466675 993.095154,834.645813 998.447327,825.878235 
	C1006.411804,812.831177 1006.866150,795.330444 993.196472,785.019653 
	C985.741150,779.396240 976.882568,775.637390 968.675598,771.004395 
	C964.646179,768.729675 960.284851,766.836914 956.750000,763.944763 
	C952.513672,760.478882 949.894592,755.855347 951.632019,749.875122 
	C954.812134,738.928894 966.038940,733.879517 977.105469,738.672485 
	C980.747437,740.249878 984.060425,742.584106 987.695557,744.181274 
	C991.503540,745.854370 995.421753,745.525818 998.108765,742.086548 
	C1000.788818,738.656006 1000.409058,734.700134 997.484436,731.625122 
	C995.612732,729.657166 993.055664,727.980042 990.487976,727.096436 
	C978.038940,722.812439 965.492615,722.439392 952.925720,726.888489 
	C938.087280,732.141663 930.032532,747.101379 934.041016,763.213074 
M1037.999023,814.499939 
	C1037.999023,775.224304 1038.026978,735.948669 1037.983154,696.673096 
	C1037.968750,683.800110 1039.402100,685.054260 1026.103760,685.013916 
	C1019.251282,684.993164 1018.044128,686.108704 1018.036560,693.184875 
	C1017.987488,739.117371 1017.989929,785.049805 1018.039734,830.982300 
	C1018.046448,837.156250 1018.972473,837.936157 1024.961060,837.989075 
	C1027.789917,838.014038 1030.620483,837.914856 1033.447876,837.978638 
	C1036.581543,838.049316 1038.009033,836.621521 1037.980469,833.472839 
	C1037.926147,827.482361 1037.986328,821.490906 1037.999023,814.499939 
M710.999695,782.500000 
	C710.999695,796.484314 710.985413,810.468689 711.003723,824.453003 
	C711.021240,837.763184 708.894592,838.286377 725.655762,837.984497 
	C729.349854,837.917908 731.087524,836.388794 731.024414,832.528503 
	C730.891174,824.373291 730.998413,816.214233 731.000366,808.056763 
	C731.005310,787.912720 730.979248,767.768555 731.024414,747.624634 
	C731.039307,740.990417 733.422913,735.784058 737.615295,735.551025 
	C742.374207,735.286621 747.382629,736.189758 751.980896,737.581848 
	C754.816772,738.440369 757.038330,741.233582 759.626099,743.027771 
	C764.101013,746.130432 770.762573,745.073425 773.402771,740.934998 
	C776.717407,735.739563 775.109314,730.091431 769.361816,727.210205 
	C767.454346,726.254028 765.414673,725.446777 763.344666,724.947998 
	C748.420776,721.352356 733.684021,722.755676 719.183716,727.157593 
	C712.654236,729.139709 711.053955,731.671143 711.025208,738.548279 
	C710.965332,752.865295 711.002441,767.182739 710.999695,782.500000 
M1062.440674,812.068909 
	C1065.707275,816.659851 1069.074829,821.182800 1072.221680,825.854370 
	C1082.287354,840.796997 1078.474365,837.642639 1096.337891,837.937927 
	C1098.513062,837.973999 1100.702026,837.179382 1102.884521,836.769775 
	C1102.085693,834.566467 1101.298584,832.358765 1100.473999,830.165161 
	C1100.363281,829.870667 1100.051392,829.656189 1099.852051,829.390015 
	C1087.927490,813.467224 1076.078857,797.486572 1064.013794,781.671021 
	C1061.860596,778.848511 1062.056274,777.523865 1064.826782,775.303589 
	C1077.367920,765.253540 1087.753418,753.225952 1095.711060,739.264038 
	C1097.812378,735.577209 1102.520630,730.655518 1098.943481,727.299927 
	C1096.204590,724.730652 1089.968628,725.645874 1085.271606,725.480286 
	C1081.113647,725.333740 1079.310059,727.899292 1077.743408,731.829590 
	C1070.889648,749.022644 1059.951294,763.237732 1044.830444,774.071167 
	C1039.161743,778.132568 1039.020508,778.123840 1043.068359,784.082764 
	C1049.308228,793.268555 1055.686768,802.360046 1062.440674,812.068909 
M912.999023,823.484497 
	C912.999023,795.509216 913.077209,767.533630 912.968018,739.558777 
	C912.907776,724.119751 915.124390,726.335632 899.499084,725.915527 
	C894.478455,725.780518 892.881348,727.420166 892.909729,732.466919 
	C893.095093,765.436707 893.082825,798.408447 892.920715,831.378479 
	C892.896484,836.299255 894.350891,838.209534 899.460083,838.078552 
	C915.136963,837.676392 912.763611,839.859131 912.999023,823.484497 
M1145.858032,696.488220 
	C1161.810791,685.608887 1164.030029,672.413879 1161.296143,658.014587 
	C1158.223877,641.833374 1141.466675,628.972534 1122.432739,631.849670 
	C1097.421265,635.630432 1085.660156,664.323364 1098.424927,685.121948 
	C1108.223877,701.088135 1129.112549,705.540771 1145.858032,696.488220 
M907.451660,684.749390 
	C900.007263,683.024170 894.146851,685.801392 892.183411,691.984985 
	C890.249390,698.075745 893.041260,704.803528 898.397339,706.959045 
	C904.551086,709.435669 911.222656,706.943787 913.891479,701.171997 
	C917.007263,694.433533 914.982971,688.644714 907.451660,684.749390 
z"/>
<path fill="#001965" opacity="1.000000" stroke="none" 
	d="
M592.739990,650.757629 
	C614.301025,627.857605 635.020325,604.642578 650.497498,577.515808 
	C663.135315,555.365479 672.787842,531.752197 677.471863,506.565063 
	C679.595093,495.148285 678.623352,483.505249 669.779724,474.326172 
	C661.560852,465.795532 649.700012,463.547699 638.098816,468.606567 
	C633.117188,470.778870 628.408630,473.707458 623.882874,476.748993 
	C620.925903,478.736237 618.485046,479.114349 615.150879,477.662231 
	C600.145752,471.127014 584.669189,466.106964 568.100281,466.045380 
	C536.064331,465.926270 515.477478,491.950195 523.632935,523.003601 
	C531.594543,553.319092 540.863892,583.290405 548.879028,613.592773 
	C553.531738,631.182983 557.197205,649.060974 560.572571,666.948059 
	C561.775513,673.322998 558.109558,677.869690 551.483276,677.933044 
	C537.819397,678.063721 524.153259,677.932556 510.488495,678.000671 
	C506.628448,678.019958 504.711334,676.026428 505.109924,672.483459 
	C505.979095,664.757935 507.170532,657.064575 508.388458,649.383179 
	C513.402161,617.761658 511.585571,586.928772 498.632324,557.160950 
	C488.940613,534.888489 473.685455,517.427002 454.113647,503.378418 
	C450.788574,500.991699 448.335297,501.113190 446.238220,504.334869 
	C441.542450,511.548889 436.274689,518.525696 432.603638,526.247437 
	C419.074585,554.704651 409.708496,584.664856 403.104523,615.401001 
	C399.561768,631.889526 397.409424,648.692200 395.042969,665.411682 
	C393.806122,674.150635 390.235565,677.984985 381.633270,677.995178 
	C369.301270,678.009888 356.969055,678.034302 344.637299,677.974365 
	C338.733307,677.945679 335.906219,675.756775 337.282593,670.164734 
	C338.988159,663.235229 342.054474,656.457214 345.559052,650.187195 
	C357.820160,628.250977 368.879120,605.780884 377.817200,582.278503 
	C384.682648,564.226135 389.711487,545.650146 392.517609,526.581726 
	C395.153931,508.667023 395.977997,490.636871 392.128265,472.687439 
	C390.145233,463.441437 384.682465,456.300659 379.087982,448.992950 
	C366.002289,431.900085 356.327637,412.752716 346.752563,393.560486 
	C342.529785,385.096344 338.202362,376.624817 333.140381,368.653259 
	C326.026031,357.449738 315.206512,351.511566 302.040253,352.216583 
	C289.988434,352.861908 281.598877,348.230408 275.129639,338.651550 
	C273.004028,335.504211 270.251251,332.776550 268.166779,329.606140 
	C263.312439,322.222900 264.109802,315.461029 269.798431,308.641754 
	C274.782074,302.667603 279.803528,296.647125 284.002960,290.128326 
	C286.223602,286.681183 287.392242,282.202972 287.859009,278.057739 
	C288.667786,270.875336 292.220001,265.303986 296.543060,259.979309 
	C298.844116,257.145081 301.383118,254.496841 303.584534,251.590317 
	C307.967743,245.803146 307.893280,243.699921 303.707550,237.407806 
	C298.849640,230.105194 293.538391,223.047668 289.315765,215.391861 
	C282.647797,203.302444 279.710541,190.004074 279.021118,176.259308 
	C278.749634,170.846451 278.783936,165.394257 279.130646,159.988953 
	C279.235321,158.356491 280.857758,156.821350 281.784973,155.241608 
	C283.377686,156.276321 285.508087,156.965958 286.443115,158.422806 
	C288.033539,160.900772 288.877655,163.859070 290.024994,166.619843 
	C298.440369,186.869324 310.952911,204.014374 329.078979,216.567337 
	C343.578979,226.609131 359.931641,231.491653 377.505676,233.101593 
	C406.136322,235.724426 430.496185,225.793793 452.675629,208.796173 
	C453.727203,207.990265 454.724548,206.987579 455.920593,206.525192 
	C457.810272,205.794662 459.847015,205.444473 461.821503,204.933334 
	C462.027527,207.282471 463.104584,209.999481 462.293793,211.919159 
	C458.041901,221.986282 452.174561,231.273178 443.226227,237.628357 
	C430.941528,246.353104 417.976379,254.119095 405.317322,262.318359 
	C403.996307,263.173981 402.773346,264.180969 400.276428,266.024963 
	C405.835266,268.831421 410.249176,271.339630 414.878448,273.352661 
	C451.399872,289.233765 489.244598,300.829803 528.429443,307.972656 
	C551.968140,312.263489 575.634521,315.430969 599.642090,314.999664 
	C616.368835,314.699188 633.134460,314.918671 649.808960,313.802826 
	C667.977478,312.587006 686.040527,309.874634 704.186584,308.222504 
	C724.494080,306.373566 744.862427,303.464539 765.138733,308.561462 
	C789.002258,314.560059 803.837463,330.012207 809.687012,353.467560 
	C812.634888,365.287994 813.887939,377.628479 814.869995,389.817413 
	C816.136047,405.530853 816.402832,421.326447 817.022278,437.089752 
	C817.420471,447.219879 817.822388,457.353424 817.972351,467.489136 
	C818.383423,495.284668 818.898499,523.081970 818.920654,550.878906 
	C818.939209,574.179504 818.337097,597.480896 817.972839,620.781372 
	C817.894348,625.799805 815.852417,627.728821 810.512207,627.966553 
	C802.886658,628.306091 795.260925,628.707947 787.630859,628.857422 
	C782.474609,628.958435 780.296387,632.167236 779.051208,636.428284 
	C776.352844,645.662598 773.769836,654.930603 771.128906,664.181702 
	C770.491699,666.413513 769.711365,668.609192 769.173462,670.863586 
	C767.967224,675.919800 764.460449,677.911011 759.659790,677.947327 
	C748.661682,678.030579 737.661865,678.046814 726.664062,677.947083 
	C721.662537,677.901794 718.423523,673.792542 719.613342,668.903931 
	C720.310974,666.037415 721.425598,663.201721 722.789001,660.578979 
	C734.314392,638.407349 744.599915,615.718445 750.324402,591.285034 
	C756.512451,564.873108 758.164246,538.358704 749.046143,512.218872 
	C746.462463,504.812012 742.480225,497.892975 739.139465,490.750214 
	C738.461426,490.817902 737.783447,490.885590 737.105469,490.953278 
	C735.748718,495.557281 734.389709,500.160614 733.035706,504.765381 
	C730.602905,513.038757 728.855713,521.605164 725.486633,529.477661 
	C723.458862,534.215698 719.445251,538.517517 715.394043,541.902405 
	C700.160583,554.630005 688.293213,570.104980 677.729980,586.666382 
	C661.666443,611.851746 649.341553,638.814148 640.069458,667.201355 
	C637.322693,675.610718 633.824463,677.977112 625.000000,677.992432 
	C612.334656,678.014404 599.664246,678.188110 587.007996,677.848633 
	C584.165161,677.772339 579.847046,676.544922 578.945435,674.586975 
	C577.839905,672.186157 578.697998,667.843018 580.326721,665.434998 
	C583.830627,660.254639 588.371460,655.775696 592.739990,650.757629 
M667.567017,331.015808 
	C666.736938,331.073486 665.904968,331.110962 665.077148,331.192169 
	C660.564270,331.635071 658.846069,333.213654 659.776306,338.493774 
	C661.895020,350.519897 663.746094,362.604858 662.116638,375.015991 
	C660.554138,386.916534 656.710815,396.831604 644.932861,402.036987 
	C627.234070,409.859222 608.317444,409.132477 589.663086,409.616882 
	C579.754333,409.874176 569.810120,408.479980 559.873230,408.016296 
	C549.068542,407.512085 539.744629,400.800201 538.232788,390.187042 
	C536.110474,375.288544 535.287170,360.201569 534.031677,345.184875 
	C533.577820,339.755890 535.450378,332.647461 532.662964,329.318146 
	C529.901550,326.019928 522.608337,326.505035 517.293213,325.376007 
	C516.855957,325.283173 516.344971,325.537476 515.495605,325.703156 
	C515.015930,327.672943 514.389709,329.715912 514.030579,331.804779 
	C511.543030,346.275269 507.933624,360.426453 500.780884,373.357117 
	C489.048889,394.566101 474.300751,399.081787 453.618469,396.755554 
	C444.073608,395.681976 439.001129,389.891693 440.236542,380.341553 
	C441.525055,370.380768 444.951080,360.716827 446.816223,350.805206 
	C449.201721,338.128571 451.055664,325.347565 452.871826,312.573608 
	C453.105316,310.931213 452.213898,308.013519 451.033722,307.480774 
	C446.214844,305.305481 441.182007,303.174622 436.019623,302.378357 
	C433.585327,302.002899 429.723877,303.966797 428.138550,306.088348 
	C414.707581,324.061890 402.215240,342.643250 393.263916,363.379791 
	C388.886230,373.521027 385.524170,383.959961 385.106110,394.996887 
	C384.418823,413.139832 393.020477,427.549622 404.867615,440.302979 
	C415.616425,451.873962 428.947388,460.021973 442.519287,467.782654 
	C460.694641,478.175720 478.607819,488.900269 492.588409,504.965759 
	C495.306274,508.088989 497.095428,507.498444 498.317474,503.418518 
	C498.648468,502.313293 498.817932,501.158783 499.045959,500.023743 
	C504.366943,473.534607 518.874146,455.030151 544.871765,445.784821 
	C561.222778,439.970032 578.178223,437.668182 595.178650,437.305328 
	C616.412476,436.852112 637.775940,437.448242 658.925354,439.349579 
	C684.721924,441.668701 709.330017,449.163818 732.468262,461.146240 
	C742.577942,466.381653 746.850891,464.714905 750.791992,454.145996 
	C757.090210,437.256134 760.117249,419.621521 761.979492,401.775330 
	C762.908630,392.870972 763.840149,383.940582 764.119812,375.001617 
	C764.435181,364.921661 765.057678,354.674774 763.682861,344.758881 
	C761.490784,328.947144 744.020996,318.843109 729.540466,324.201965 
	C730.367554,326.672577 731.153137,329.180206 732.043518,331.650116 
	C735.363342,340.859436 737.079529,350.350739 734.403076,359.889923 
	C730.503967,373.786865 720.391724,381.219940 706.693237,384.025757 
	C696.220276,386.170929 690.188049,380.985229 689.979431,370.311920 
	C689.795837,360.916229 688.283569,351.618500 683.774902,343.388580 
	C680.533569,337.472015 678.928467,328.372223 667.567017,331.015808 
M404.453461,306.930939 
	C404.987305,306.090820 405.514893,305.246643 406.055939,304.411194 
	C411.639069,295.790405 410.953491,292.113586 402.187317,287.184906 
	C394.954163,283.118103 387.384674,279.653015 380.106873,275.661285 
	C368.622070,269.362091 357.512146,262.324585 345.770966,256.562561 
	C333.345978,250.464951 327.969666,251.463837 319.678070,260.809723 
	C318.795563,261.804443 317.708740,262.625305 316.875854,263.655518 
	C310.760651,271.219940 303.951813,278.193024 303.519409,289.060883 
	C303.356476,293.155670 300.574585,297.383759 298.261749,301.099976 
	C294.764557,306.719238 290.508087,311.861145 286.854126,317.390869 
	C285.881256,318.863159 285.173035,321.232544 285.637665,322.808441 
	C287.736481,329.927094 296.333954,335.952332 303.763794,335.995483 
	C306.095001,336.009033 308.436859,335.864441 310.755768,336.036194 
	C324.462799,337.051208 336.394714,341.329742 343.696320,354.092346 
	C346.657776,359.268738 349.793701,364.345154 352.772797,369.511688 
	C356.700623,376.323486 360.552246,383.179230 364.990784,390.991425 
	C365.927124,388.347687 366.602692,387.027771 366.856873,385.631165 
	C369.284882,372.290039 373.862976,359.614471 380.248230,347.783783 
	C387.645630,334.077728 396.046753,320.913391 404.453461,306.930939 
M609.500000,334.000000 
	C589.655029,333.123077 569.810059,332.246185 549.061584,331.329346 
	C549.338013,334.467987 549.740234,338.144836 549.972168,341.832428 
	C550.700928,353.419037 551.199524,365.022705 552.106201,376.594757 
	C552.864807,386.275940 555.913452,390.449707 562.877502,391.674561 
	C567.106873,392.418427 571.434875,392.873474 575.726440,392.938721 
	C586.990601,393.109985 598.289917,393.504730 609.515259,392.823090 
	C617.385498,392.345184 625.259216,390.652557 632.939331,388.733521 
	C638.672974,387.300903 642.591125,383.394470 644.112610,377.213867 
	C647.489380,363.496979 646.281250,349.868561 643.700500,336.264679 
	C643.487854,335.143646 641.545166,333.536316 640.403198,333.533691 
	C630.435913,333.510620 620.467834,333.801971 609.500000,334.000000 
M797.000061,498.481873 
	C797.000061,494.317230 797.006348,490.152588 796.998962,485.987946 
	C796.961975,465.225098 797.850891,444.399475 793.894897,423.857971 
	C793.036682,419.401855 791.043518,415.143494 789.328857,410.892578 
	C789.024902,410.138977 787.326538,409.302490 786.613403,409.537994 
	C785.877136,409.781097 785.268860,411.239349 785.109009,412.246094 
	C784.615967,415.351898 784.374146,418.497070 784.016052,421.624817 
	C782.452332,435.282990 780.661133,448.920105 779.403076,462.606262 
	C778.725098,469.981659 777.915894,477.594452 778.986084,484.830902 
	C781.480713,501.697815 785.050049,518.406860 788.249634,535.167419 
	C788.898010,538.563904 789.835144,541.905334 790.639099,545.272156 
	C791.309082,545.291931 791.979065,545.311707 792.648987,545.331421 
	C793.411377,542.802979 794.675293,540.308960 794.851379,537.740356 
	C795.725220,524.995483 796.312073,512.230835 797.000061,498.481873 
M492.702972,319.706848 
	C487.122406,318.182281 481.523224,316.722046 475.966644,315.114441 
	C470.753448,313.606262 470.184235,313.954071 469.136017,319.435272 
	C465.782440,336.971069 462.414612,354.504242 458.989349,372.026154 
	C457.757996,378.325165 459.994446,381.163757 466.428467,380.959320 
	C474.306488,380.709045 479.122223,375.482208 483.041992,369.674011 
	C491.636810,356.938629 495.299438,342.331421 498.455627,327.499725 
	C499.525482,322.472229 498.336914,320.338684 492.702972,319.706848 
M701.828796,346.916809 
	C703.231201,354.463928 704.633606,362.011078 706.033630,369.545532 
	C716.028809,367.777710 722.767334,360.920563 721.713623,351.408844 
	C720.821350,343.355042 717.581421,335.547211 715.178955,327.692169 
	C714.867859,326.674896 713.266907,325.241119 712.405334,325.332855 
	C706.110657,326.003143 699.852356,327.013947 693.224304,327.968903 
	C696.335449,334.761566 698.946899,340.463287 701.828796,346.916809 
z"/>
<path fill="#001965" opacity="1.000000" stroke="none" 
	d="
M346.693848,200.328445 
	C323.453491,187.235306 308.846680,167.898834 304.234283,142.098633 
	C298.856873,112.019089 306.612823,85.217339 328.914795,63.799110 
	C344.133820,49.183151 362.525818,41.413673 384.085541,40.845222 
	C403.800049,40.325424 421.544952,45.181633 437.414642,56.750202 
	C456.178253,70.428429 467.274200,88.939819 471.023895,111.769173 
	C474.873566,135.207047 469.799744,156.911819 455.889160,175.955078 
	C441.424469,195.756836 421.651611,207.103485 396.978760,210.158478 
	C379.099518,212.372299 362.742767,208.525742 346.693848,200.328445 
M426.718689,75.783600 
	C406.076202,57.162117 376.693085,57.143345 356.286072,72.912262 
	C328.259491,94.568954 326.339722,133.350433 352.171204,157.294098 
	C374.841431,178.307480 408.115387,176.901733 429.412933,155.177795 
	C450.890656,133.270065 450.085388,96.696838 426.718689,75.783600 
z"/>
<path fill="#001965" opacity="1.000000" stroke="none" 
	d="
M820.366699,724.025879 
	C830.157532,723.620667 839.387695,723.900635 848.586548,729.202332 
	C848.768066,726.203918 848.977173,724.290222 848.984314,722.375671 
	C849.023071,712.044128 849.094788,701.711487 848.973877,691.381287 
	C848.929749,687.610962 850.270813,685.761047 854.209045,685.987793 
	C856.866211,686.140808 859.540039,685.981140 862.205872,686.009094 
	C868.363647,686.073669 868.976685,686.635254 868.980530,693.027771 
	C869.006470,736.187439 868.891907,779.347656 869.103882,822.506287 
	C869.136597,829.152832 865.106262,832.470520 860.364868,834.582031 
	C843.736084,841.987244 826.506653,843.559387 808.890320,838.098938 
	C793.678101,833.383667 783.732483,822.976318 779.391724,808.114258 
	C772.724609,785.286804 773.940613,763.071777 788.418396,742.981628 
	C796.183777,732.205872 806.733521,725.901733 820.366699,724.025879 
M849.001160,758.509705 
	C849.001038,756.177246 849.003479,753.844849 849.000366,751.512390 
	C848.989441,743.371887 848.284668,742.356934 840.596375,739.709290 
	C822.375488,733.434387 806.720947,743.354919 800.168579,759.166992 
	C793.897034,774.301025 794.763977,789.733276 800.167297,804.901428 
	C806.964966,823.983704 826.799072,832.877686 843.905090,825.004089 
	C847.543335,823.329468 849.118408,821.129944 849.078186,816.983459 
	C848.892029,797.826111 848.999146,778.665894 849.001160,758.509705 
z"/>
<path fill="#001965" opacity="1.000000" stroke="none" 
	d="
M165.754654,835.327637 
	C154.571304,829.034851 148.513870,819.080200 145.498291,807.641418 
	C140.681076,789.368469 140.809494,770.946106 146.949203,752.802368 
	C154.832886,729.505066 178.155533,720.791931 199.307266,723.533325 
	C224.255630,726.766663 236.270004,744.880981 238.969345,766.056335 
	C241.231232,783.800049 241.635742,801.529663 232.957993,818.142517 
	C225.038727,833.303284 212.275192,840.311401 195.527206,841.024292 
	C185.256210,841.461548 175.258575,840.739868 165.754654,835.327637 
M218.012527,801.380981 
	C220.491837,785.489624 220.269974,769.699341 215.818680,754.155579 
	C213.258392,745.215149 204.455399,737.711121 196.282684,737.044922 
	C182.294724,735.904724 173.532745,739.673157 168.946899,750.508423 
	C160.801514,769.754089 161.394669,789.675659 166.833435,809.467041 
	C170.129120,821.459717 179.073456,827.884399 190.929764,827.991882 
	C203.474854,828.105591 211.847946,822.062561 215.844040,809.913574 
	C216.671600,807.397583 217.244339,804.797729 218.012527,801.380981 
z"/>
<path fill="#001965" opacity="1.000000" stroke="none" 
	d="
M396.086304,723.836670 
	C417.702271,727.055603 429.167694,740.574768 433.735382,760.298218 
	C437.961945,778.548584 437.662598,796.975342 430.468689,814.586853 
	C423.927368,830.600769 409.681732,840.357178 391.648041,840.999939 
	C381.455780,841.363159 371.419434,840.961182 362.192780,835.785461 
	C349.647736,828.748291 343.276642,817.219116 340.345673,803.902100 
	C336.358612,785.786438 336.761658,767.677490 343.820770,750.148804 
	C349.779205,735.353271 360.992004,726.824890 376.419373,724.213867 
	C382.677216,723.154785 389.233948,723.861450 396.086304,723.836670 
M405.494324,820.987671 
	C406.560211,819.517700 407.893616,818.173279 408.651367,816.558716 
	C418.174805,796.267151 417.097504,775.282776 411.476013,754.451904 
	C408.400574,743.055542 400.059601,735.695984 383.901520,736.937439 
	C373.545044,737.733154 365.061218,745.004761 362.081451,756.406433 
	C357.840729,772.633057 358.095490,788.930237 361.310242,805.230347 
	C362.571838,811.627136 365.188019,817.503845 370.160553,822.075806 
	C378.008728,829.291626 394.915161,830.895325 405.494324,820.987671 
z"/>
<path fill="#001965" opacity="1.000000" stroke="none" 
	d="
M685.263672,826.287109 
	C679.935425,833.321655 672.968384,837.484009 664.980652,839.407532 
	C654.733887,841.875000 644.267761,842.108704 633.936890,839.439636 
	C614.673828,834.462891 605.792114,820.071533 602.477844,802.157349 
	C599.479736,785.952393 599.461426,769.465393 604.993896,753.458557 
	C610.290527,738.133789 620.523132,728.403198 636.463745,724.682190 
	C652.200806,721.008667 666.809753,723.039490 679.831177,732.965759 
	C690.090027,740.786316 694.662903,752.126038 696.634094,764.212952 
	C699.324768,780.711182 699.466553,797.350159 692.958618,813.220642 
	C691.103210,817.745361 688.023621,821.768188 685.263672,826.287109 
M625.166138,753.889343 
	C624.043579,760.237061 622.845215,766.572571 621.814453,772.935120 
	C619.728088,785.813721 621.380493,798.472168 625.192444,810.745728 
	C628.763000,822.242065 637.968750,828.137634 650.298035,827.991455 
	C661.694885,827.856323 670.584900,821.455566 673.795410,810.025024 
	C678.864990,791.975891 678.807556,773.680481 674.163818,755.572205 
	C671.680359,745.887817 665.385254,738.977356 655.221313,737.213440 
	C640.858032,734.720642 631.926392,739.811951 625.166138,753.889343 
z"/>
<path fill="#001965" opacity="1.000000" stroke="none" 
	d="
M103.736282,745.442688 
	C100.704315,742.726501 98.226807,739.406311 94.952278,738.128113 
	C85.502457,734.439880 75.750679,734.932495 66.274330,738.485657 
	C62.052128,740.068787 59.880520,743.024292 59.915211,748.015808 
	C60.102772,775.001770 60.009811,801.989685 59.991524,828.976929 
	C59.985786,837.447021 59.413887,838.056396 50.843159,837.980652 
	C38.410938,837.870789 40.062824,839.505615 40.026978,827.036743 
	C39.943638,798.050720 39.994465,769.064209 40.007072,740.077942 
	C40.010300,732.665649 40.955315,731.213501 48.040791,728.896545 
	C66.680840,722.801453 85.537010,720.678833 104.841431,725.764282 
	C118.441933,729.347107 126.760223,739.123474 126.904594,753.445618 
	C127.168213,779.597229 126.941101,805.753540 127.023399,831.907532 
	C127.037384,836.351807 125.316841,838.142639 120.770943,838.052490 
	C104.815895,837.736023 107.116692,839.833679 107.030586,824.697815 
	C106.909294,803.375244 107.186989,782.048584 106.856888,760.730469 
	C106.779457,755.730225 104.950058,750.757080 103.736282,745.442688 
z"/>
<path fill="#001965" opacity="1.000000" stroke="none" 
	d="
M498.006104,831.737732 
	C498.003143,800.604858 498.086731,769.943237 497.918976,739.282898 
	C497.891998,734.353333 499.883514,731.124817 504.157990,729.630676 
	C524.173828,722.634216 544.475952,720.107605 565.189758,726.589050 
	C576.807556,730.224426 583.577454,738.259583 583.899963,750.264893 
	C584.641724,777.875183 584.656677,805.505188 584.954041,833.127319 
	C584.988892,836.367554 583.470398,838.018555 580.087036,837.988831 
	C562.093445,837.830750 565.175964,840.094299 565.043640,824.009827 
	C564.866882,802.515137 565.018921,781.017822 564.992188,759.521667 
	C564.971924,743.236816 557.770142,735.855408 541.605103,736.095520 
	C536.194458,736.175903 530.695190,736.922180 525.429016,738.174072 
	C520.475830,739.351624 517.882263,742.750793 517.920105,748.400024 
	C518.101624,775.560669 518.007874,802.723145 517.990234,829.885010 
	C517.985168,837.781433 517.759705,837.974121 509.793457,837.997559 
	C507.793854,838.003418 505.782135,837.850769 503.796997,838.018982 
	C499.475067,838.385254 497.550110,836.525696 498.006104,831.737732 
z"/>
<path fill="#001965" opacity="1.000000" stroke="none" 
	d="
M332.882446,742.823975 
	C325.555908,762.811707 318.319702,782.416626 311.118744,802.034485 
	C307.232483,812.621948 303.327118,823.203857 299.604645,833.849182 
	C298.571594,836.803345 296.994415,838.318604 293.805054,838.002625 
	C292.651245,837.888367 291.455048,837.852722 290.313782,838.021729 
	C285.359650,838.755249 283.015808,836.564026 281.264526,831.865845 
	C269.042358,799.076538 256.479034,766.414490 244.103180,733.682190 
	C241.662064,727.225708 243.174637,725.207581 250.094574,725.006958 
	C250.760162,724.987610 251.426605,724.996643 252.092651,724.993958 
	C263.054840,724.949280 263.478333,725.319458 267.027710,735.555725 
	C274.852509,758.122192 282.745911,780.664856 290.634125,803.209290 
	C291.088165,804.507019 291.745453,805.733582 292.860046,808.228699 
	C294.139008,805.211975 294.998932,803.498657 295.607574,801.700317 
	C303.479584,778.440491 311.315857,755.168579 319.161072,731.899719 
	C321.291107,725.582031 329.016754,722.225647 334.659424,725.795715 
	C336.146637,726.736694 336.747406,730.400330 336.405212,732.604126 
	C335.880920,735.980408 334.185730,739.174988 332.882446,742.823975 
z"/>
<path fill="#001965" opacity="1.000000" stroke="none" 
	d="
M933.985596,762.796021 
	C930.032532,747.101379 938.087280,732.141663 952.925720,726.888489 
	C965.492615,722.439392 978.038940,722.812439 990.487976,727.096436 
	C993.055664,727.980042 995.612732,729.657166 997.484436,731.625122 
	C1000.409058,734.700134 1000.788818,738.656006 998.108765,742.086548 
	C995.421753,745.525818 991.503540,745.854370 987.695557,744.181274 
	C984.060425,742.584106 980.747437,740.249878 977.105469,738.672485 
	C966.038940,733.879517 954.812134,738.928894 951.632019,749.875122 
	C949.894592,755.855347 952.513672,760.478882 956.750000,763.944763 
	C960.284851,766.836914 964.646179,768.729675 968.675598,771.004395 
	C976.882568,775.637390 985.741150,779.396240 993.196472,785.019653 
	C1006.866150,795.330444 1006.411804,812.831177 998.447327,825.878235 
	C993.095154,834.645813 984.374023,838.466675 974.897583,840.072998 
	C960.675781,842.483521 946.747803,841.522156 934.243652,833.107910 
	C933.830994,832.830322 933.363708,832.626160 932.977539,832.317993 
	C929.018433,829.159546 927.756775,823.508545 930.179993,819.857666 
	C932.300842,816.662292 938.222229,815.846436 942.460876,818.320129 
	C946.610596,820.742004 950.516785,823.618958 954.788757,825.785828 
	C965.578857,831.259033 982.470398,826.242981 985.241882,812.859985 
	C986.492920,806.818848 984.460510,800.537781 977.150635,796.283875 
	C968.567139,791.288757 959.358582,787.380554 950.553223,782.749817 
	C942.475891,778.502014 936.370300,772.407166 933.985596,762.796021 
z"/>
<path fill="#001965" opacity="1.000000" stroke="none" 
	d="
M1037.999023,814.999878 
	C1037.986328,821.490906 1037.926147,827.482361 1037.980469,833.472839 
	C1038.009033,836.621521 1036.581543,838.049316 1033.447876,837.978638 
	C1030.620483,837.914856 1027.789917,838.014038 1024.961060,837.989075 
	C1018.972473,837.936157 1018.046448,837.156250 1018.039734,830.982300 
	C1017.989929,785.049805 1017.987488,739.117371 1018.036560,693.184875 
	C1018.044128,686.108704 1019.251282,684.993164 1026.103760,685.013916 
	C1039.402100,685.054260 1037.968750,683.800110 1037.983154,696.673096 
	C1038.026978,735.948669 1037.999023,775.224304 1037.999023,814.999878 
z"/>
<path fill="#001965" opacity="1.000000" stroke="none" 
	d="
M710.999695,782.000000 
	C711.002441,767.182739 710.965332,752.865295 711.025208,738.548279 
	C711.053955,731.671143 712.654236,729.139709 719.183716,727.157593 
	C733.684021,722.755676 748.420776,721.352356 763.344666,724.947998 
	C765.414673,725.446777 767.454346,726.254028 769.361816,727.210205 
	C775.109314,730.091431 776.717407,735.739563 773.402771,740.934998 
	C770.762573,745.073425 764.101013,746.130432 759.626099,743.027771 
	C757.038330,741.233582 754.816772,738.440369 751.980896,737.581848 
	C747.382629,736.189758 742.374207,735.286621 737.615295,735.551025 
	C733.422913,735.784058 731.039307,740.990417 731.024414,747.624634 
	C730.979248,767.768555 731.005310,787.912720 731.000366,808.056763 
	C730.998413,816.214233 730.891174,824.373291 731.024414,832.528503 
	C731.087524,836.388794 729.349854,837.917908 725.655762,837.984497 
	C708.894592,838.286377 711.021240,837.763184 711.003723,824.453003 
	C710.985413,810.468689 710.999695,796.484314 710.999695,782.000000 
z"/>
<path fill="#001965" opacity="1.000000" stroke="none" 
	d="
M1062.223633,811.780273 
	C1055.686768,802.360046 1049.308228,793.268555 1043.068359,784.082764 
	C1039.020508,778.123840 1039.161743,778.132568 1044.830444,774.071167 
	C1059.951294,763.237732 1070.889648,749.022644 1077.743408,731.829590 
	C1079.310059,727.899292 1081.113647,725.333740 1085.271606,725.480286 
	C1089.968628,725.645874 1096.204590,724.730652 1098.943481,727.299927 
	C1102.520630,730.655518 1097.812378,735.577209 1095.711060,739.264038 
	C1087.753418,753.225952 1077.367920,765.253540 1064.826782,775.303589 
	C1062.056274,777.523865 1061.860596,778.848511 1064.013794,781.671021 
	C1076.078857,797.486572 1087.927490,813.467224 1099.852051,829.390015 
	C1100.051392,829.656189 1100.363281,829.870667 1100.473999,830.165161 
	C1101.298584,832.358765 1102.085693,834.566467 1102.884521,836.769775 
	C1100.702026,837.179382 1098.513062,837.973999 1096.337891,837.937927 
	C1078.474365,837.642639 1082.287354,840.796997 1072.221680,825.854370 
	C1069.074829,821.182800 1065.707275,816.659851 1062.223633,811.780273 
z"/>
<path fill="#001965" opacity="1.000000" stroke="none" 
	d="
M912.999023,823.980774 
	C912.763611,839.859131 915.136963,837.676392 899.460083,838.078552 
	C894.350891,838.209534 892.896484,836.299255 892.920715,831.378479 
	C893.082825,798.408447 893.095093,765.436707 892.909729,732.466919 
	C892.881348,727.420166 894.478455,725.780518 899.499084,725.915527 
	C915.124390,726.335632 912.907776,724.119751 912.968018,739.558777 
	C913.077209,767.533630 912.999023,795.509216 912.999023,823.980774 
z"/>
<path fill="#001965" opacity="1.000000" stroke="none" 
	d="
M1145.536377,696.676758 
	C1129.112549,705.540771 1108.223877,701.088135 1098.424927,685.121948 
	C1085.660156,664.323364 1097.421265,635.630432 1122.432739,631.849670 
	C1141.466675,628.972534 1158.223877,641.833374 1161.296143,658.014587 
	C1164.030029,672.413879 1161.810791,685.608887 1145.536377,696.676758 
M1151.863037,681.209412 
	C1157.501587,671.228455 1157.888916,660.908447 1151.466431,651.512207 
	C1145.242920,642.407043 1136.262451,637.945374 1124.576050,638.811646 
	C1109.491211,639.929810 1099.025391,654.696594 1099.969604,668.631226 
	C1100.895630,682.302002 1113.438843,694.847290 1127.137329,694.939087 
	C1137.525757,695.008728 1145.528809,690.232056 1151.863037,681.209412 
z"/>
<path fill="#001965" opacity="1.000000" stroke="none" 
	d="
M907.835815,684.851196 
	C914.982971,688.644714 917.007263,694.433533 913.891479,701.171997 
	C911.222656,706.943787 904.551086,709.435669 898.397339,706.959045 
	C893.041260,704.803528 890.249390,698.075745 892.183411,691.984985 
	C894.146851,685.801392 900.007263,683.024170 907.835815,684.851196 
z"/>
<path fill="#000000" opacity="1.000000" stroke="none" 
	d="
M667.996338,331.009216 
	C678.928467,328.372223 680.533569,337.472015 683.774902,343.388580 
	C688.283569,351.618500 689.795837,360.916229 689.979431,370.311920 
	C690.188049,380.985229 696.220276,386.170929 706.693237,384.025757 
	C720.391724,381.219940 730.503967,373.786865 734.403076,359.889923 
	C737.079529,350.350739 735.363342,340.859436 732.043518,331.650116 
	C731.153137,329.180206 730.367554,326.672577 729.540466,324.201965 
	C744.020996,318.843109 761.490784,328.947144 763.682861,344.758881 
	C765.057678,354.674774 764.435181,364.921661 764.119812,375.001617 
	C763.840149,383.940582 762.908630,392.870972 761.979492,401.775330 
	C760.117249,419.621521 757.090210,437.256134 750.791992,454.145996 
	C746.850891,464.714905 742.577942,466.381653 732.468262,461.146240 
	C709.330017,449.163818 684.721924,441.668701 658.925354,439.349579 
	C637.775940,437.448242 616.412476,436.852112 595.178650,437.305328 
	C578.178223,437.668182 561.222778,439.970032 544.871765,445.784821 
	C518.874146,455.030151 504.366943,473.534607 499.045959,500.023743 
	C498.817932,501.158783 498.648468,502.313293 498.317474,503.418518 
	C497.095428,507.498444 495.306274,508.088989 492.588409,504.965759 
	C478.607819,488.900269 460.694641,478.175720 442.519287,467.782654 
	C428.947388,460.021973 415.616425,451.873962 404.867615,440.302979 
	C393.020477,427.549622 384.418823,413.139832 385.106110,394.996887 
	C385.524170,383.959961 388.886230,373.521027 393.263916,363.379791 
	C402.215240,342.643250 414.707581,324.061890 428.138550,306.088348 
	C429.723877,303.966797 433.585327,302.002899 436.019623,302.378357 
	C441.182007,303.174622 446.214844,305.305481 451.033722,307.480774 
	C452.213898,308.013519 453.105316,310.931213 452.871826,312.573608 
	C451.055664,325.347565 449.201721,338.128571 446.816223,350.805206 
	C444.951080,360.716827 441.525055,370.380768 440.236542,380.341553 
	C439.001129,389.891693 444.073608,395.681976 453.618469,396.755554 
	C474.300751,399.081787 489.048889,394.566101 500.780884,373.357117 
	C507.933624,360.426453 511.543030,346.275269 514.030579,331.804779 
	C514.389709,329.715912 515.015930,327.672943 515.495605,325.703156 
	C516.344971,325.537476 516.855957,325.283173 517.293213,325.376007 
	C522.608337,326.505035 529.901550,326.019928 532.662964,329.318146 
	C535.450378,332.647461 533.577820,339.755890 534.031677,345.184875 
	C535.287170,360.201569 536.110474,375.288544 538.232788,390.187042 
	C539.744629,400.800201 549.068542,407.512085 559.873230,408.016296 
	C569.810120,408.479980 579.754333,409.874176 589.663086,409.616882 
	C608.317444,409.132477 627.234070,409.859222 644.932861,402.036987 
	C656.710815,396.831604 660.554138,386.916534 662.116638,375.015991 
	C663.746094,362.604858 661.895020,350.519897 659.776306,338.493774 
	C658.846069,333.213654 660.564270,331.635071 665.077148,331.192169 
	C665.904968,331.110962 666.736938,331.073486 667.996338,331.009216 
z"/>
<path fill="#000000" opacity="1.000000" stroke="none" 
	d="
M404.232788,307.222412 
	C396.046753,320.913391 387.645630,334.077728 380.248230,347.783783 
	C373.862976,359.614471 369.284882,372.290039 366.856873,385.631165 
	C366.602692,387.027771 365.927124,388.347687 364.990784,390.991425 
	C360.552246,383.179230 356.700623,376.323486 352.772797,369.511688 
	C349.793701,364.345154 346.657776,359.268738 343.696320,354.092346 
	C336.394714,341.329742 324.462799,337.051208 310.755768,336.036194 
	C308.436859,335.864441 306.095001,336.009033 303.763794,335.995483 
	C296.333954,335.952332 287.736481,329.927094 285.637665,322.808441 
	C285.173035,321.232544 285.881256,318.863159 286.854126,317.390869 
	C290.508087,311.861145 294.764557,306.719238 298.261749,301.099976 
	C300.574585,297.383759 303.356476,293.155670 303.519409,289.060883 
	C303.951813,278.193024 310.760651,271.219940 316.875854,263.655518 
	C317.708740,262.625305 318.795563,261.804443 319.678070,260.809723 
	C327.969666,251.463837 333.345978,250.464951 345.770966,256.562561 
	C357.512146,262.324585 368.622070,269.362091 380.106873,275.661285 
	C387.384674,279.653015 394.954163,283.118103 402.187317,287.184906 
	C410.953491,292.113586 411.639069,295.790405 406.055939,304.411194 
	C405.514893,305.246643 404.987305,306.090820 404.232788,307.222412 
M332.561890,293.200531 
	C335.743500,289.683105 339.141479,286.332184 342.025269,282.585541 
	C343.742371,280.354675 342.684753,278.006561 339.772644,278.193390 
	C333.703461,278.582703 327.455109,278.799896 321.683350,280.475769 
	C315.755402,282.196960 314.240204,288.869476 317.872833,293.199982 
	C320.863861,296.765625 326.442719,296.938995 332.561890,293.200531 
z"/>
<path fill="#000000" opacity="1.000000" stroke="none" 
	d="
M610.000000,334.000000 
	C620.467834,333.801971 630.435913,333.510620 640.403198,333.533691 
	C641.545166,333.536316 643.487854,335.143646 643.700500,336.264679 
	C646.281250,349.868561 647.489380,363.496979 644.112610,377.213867 
	C642.591125,383.394470 638.672974,387.300903 632.939331,388.733521 
	C625.259216,390.652557 617.385498,392.345184 609.515259,392.823090 
	C598.289917,393.504730 586.990601,393.109985 575.726440,392.938721 
	C571.434875,392.873474 567.106873,392.418427 562.877502,391.674561 
	C555.913452,390.449707 552.864807,386.275940 552.106201,376.594757 
	C551.199524,365.022705 550.700928,353.419037 549.972168,341.832428 
	C549.740234,338.144836 549.338013,334.467987 549.061584,331.329346 
	C569.810059,332.246185 589.655029,333.123077 610.000000,334.000000 
z"/>
<path fill="#000000" opacity="1.000000" stroke="none" 
	d="
M797.000061,498.977539 
	C796.312073,512.230835 795.725220,524.995483 794.851379,537.740356 
	C794.675293,540.308960 793.411377,542.802979 792.648987,545.331421 
	C791.979065,545.311707 791.309082,545.291931 790.639099,545.272156 
	C789.835144,541.905334 788.898010,538.563904 788.249634,535.167419 
	C785.050049,518.406860 781.480713,501.697815 778.986084,484.830902 
	C777.915894,477.594452 778.725098,469.981659 779.403076,462.606262 
	C780.661133,448.920105 782.452332,435.282990 784.016052,421.624817 
	C784.374146,418.497070 784.615967,415.351898 785.109009,412.246094 
	C785.268860,411.239349 785.877136,409.781097 786.613403,409.537994 
	C787.326538,409.302490 789.024902,410.138977 789.328857,410.892578 
	C791.043518,415.143494 793.036682,419.401855 793.894897,423.857971 
	C797.850891,444.399475 796.961975,465.225098 796.998962,485.987946 
	C797.006348,490.152588 797.000061,494.317230 797.000061,498.977539 
z"/>
<path fill="#000000" opacity="1.000000" stroke="none" 
	d="
M493.086151,319.799377 
	C498.336914,320.338684 499.525482,322.472229 498.455627,327.499725 
	C495.299438,342.331421 491.636810,356.938629 483.041992,369.674011 
	C479.122223,375.482208 474.306488,380.709045 466.428467,380.959320 
	C459.994446,381.163757 457.757996,378.325165 458.989349,372.026154 
	C462.414612,354.504242 465.782440,336.971069 469.136017,319.435272 
	C470.184235,313.954071 470.753448,313.606262 475.966644,315.114441 
	C481.523224,316.722046 487.122406,318.182281 493.086151,319.799377 
z"/>
<path fill="#000000" opacity="1.000000" stroke="none" 
	d="
M701.693604,346.540894 
	C698.946899,340.463287 696.335449,334.761566 693.224304,327.968903 
	C699.852356,327.013947 706.110657,326.003143 712.405334,325.332855 
	C713.266907,325.241119 714.867859,326.674896 715.178955,327.692169 
	C717.581421,335.547211 720.821350,343.355042 721.713623,351.408844 
	C722.767334,360.920563 716.028809,367.777710 706.033630,369.545532 
	C704.633606,362.011078 703.231201,354.463928 701.693604,346.540894 
z"/>
<path fill="#000000" opacity="1.000000" stroke="none" 
	d="
M427.032227,75.955719 
	C450.085388,96.696838 450.890656,133.270065 429.412933,155.177795 
	C408.115387,176.901733 374.841431,178.307480 352.171204,157.294098 
	C326.339722,133.350433 328.259491,94.568954 356.286072,72.912262 
	C376.693085,57.143345 406.076202,57.162117 427.032227,75.955719 
z"/>
<path fill="#000000" opacity="1.000000" stroke="none" 
	d="
M849.001160,759.008179 
	C848.999146,778.665894 848.892029,797.826111 849.078186,816.983459 
	C849.118408,821.129944 847.543335,823.329468 843.905090,825.004089 
	C826.799072,832.877686 806.964966,823.983704 800.167297,804.901428 
	C794.763977,789.733276 793.897034,774.301025 800.168579,759.166992 
	C806.720947,743.354919 822.375488,733.434387 840.596375,739.709290 
	C848.284668,742.356934 848.989441,743.371887 849.000366,751.512390 
	C849.003479,753.844849 849.001038,756.177246 849.001160,759.008179 
z"/>
<path fill="#000000" opacity="1.000000" stroke="none" 
	d="
M217.973526,801.808777 
	C217.244339,804.797729 216.671600,807.397583 215.844040,809.913574 
	C211.847946,822.062561 203.474854,828.105591 190.929764,827.991882 
	C179.073456,827.884399 170.129120,821.459717 166.833435,809.467041 
	C161.394669,789.675659 160.801514,769.754089 168.946899,750.508423 
	C173.532745,739.673157 182.294724,735.904724 196.282684,737.044922 
	C204.455399,737.711121 213.258392,745.215149 215.818680,754.155579 
	C220.269974,769.699341 220.491837,785.489624 217.973526,801.808777 
z"/>
<path fill="#000000" opacity="1.000000" stroke="none" 
	d="
M405.234802,821.242065 
	C394.915161,830.895325 378.008728,829.291626 370.160553,822.075806 
	C365.188019,817.503845 362.571838,811.627136 361.310242,805.230347 
	C358.095490,788.930237 357.840729,772.633057 362.081451,756.406433 
	C365.061218,745.004761 373.545044,737.733154 383.901520,736.937439 
	C400.059601,735.695984 408.400574,743.055542 411.476013,754.451904 
	C417.097504,775.282776 418.174805,796.267151 408.651367,816.558716 
	C407.893616,818.173279 406.560211,819.517700 405.234802,821.242065 
z"/>
<path fill="#000000" opacity="1.000000" stroke="none" 
	d="
M625.311951,753.528809 
	C631.926392,739.811951 640.858032,734.720642 655.221313,737.213440 
	C665.385254,738.977356 671.680359,745.887817 674.163818,755.572205 
	C678.807556,773.680481 678.864990,791.975891 673.795410,810.025024 
	C670.584900,821.455566 661.694885,827.856323 650.298035,827.991455 
	C637.968750,828.137634 628.763000,822.242065 625.192444,810.745728 
	C621.380493,798.472168 619.728088,785.813721 621.814453,772.935120 
	C622.845215,766.572571 624.043579,760.237061 625.311951,753.528809 
z"/>
<path fill="#000000" opacity="1.000000" stroke="none" 
	d="
M1151.672363,681.527832 
	C1145.528809,690.232056 1137.525757,695.008728 1127.137329,694.939087 
	C1113.438843,694.847290 1100.895630,682.302002 1099.969604,668.631226 
	C1099.025391,654.696594 1109.491211,639.929810 1124.576050,638.811646 
	C1136.262451,637.945374 1145.242920,642.407043 1151.466431,651.512207 
	C1157.888916,660.908447 1157.501587,671.228455 1151.672363,681.527832 
M1130.155029,674.309021 
	C1131.673340,676.877625 1133.331543,679.375244 1134.678223,682.031006 
	C1136.842285,686.298584 1140.093384,686.715942 1144.987061,685.053589 
	C1141.434448,679.502319 1138.124023,674.329529 1134.711792,668.997681 
	C1135.579346,668.435608 1136.211060,667.895569 1136.939575,667.575378 
	C1142.096680,665.309021 1142.323120,660.864563 1141.905762,656.220947 
	C1141.525146,651.985962 1138.834839,649.364868 1134.883423,648.973755 
	C1128.482666,648.340210 1122.013550,648.278076 1115.574341,648.299744 
	C1114.739624,648.302490 1113.207642,650.224060 1113.189209,651.277527 
	C1113.006348,661.749084 1112.972900,672.227295 1113.221436,682.695984 
	C1113.247559,683.790588 1115.361450,685.669922 1116.505127,685.668823 
	C1117.647705,685.667725 1119.513062,683.913940 1119.777588,682.658020 
	C1120.315308,680.105164 1119.937378,677.368286 1120.027466,674.710327 
	C1120.182373,670.139587 1122.288940,668.826355 1126.404297,670.872864 
	C1127.686279,671.510376 1128.690186,672.706970 1130.155029,674.309021 
z"/>
<path fill="#001965" opacity="1.000000" stroke="none" 
	d="
M332.257233,293.419037 
	C326.442719,296.938995 320.863861,296.765625 317.872833,293.199982 
	C314.240204,288.869476 315.755402,282.196960 321.683350,280.475769 
	C327.455109,278.799896 333.703461,278.582703 339.772644,278.193390 
	C342.684753,278.006561 343.742371,280.354675 342.025269,282.585541 
	C339.141479,286.332184 335.743500,289.683105 332.257233,293.419037 
z"/>
<path fill="#001965" opacity="1.000000" stroke="none" 
	d="
M1129.988159,673.978333 
	C1128.690186,672.706970 1127.686279,671.510376 1126.404297,670.872864 
	C1122.288940,668.826355 1120.182373,670.139587 1120.027466,674.710327 
	C1119.937378,677.368286 1120.315308,680.105164 1119.777588,682.658020 
	C1119.513062,683.913940 1117.647705,685.667725 1116.505127,685.668823 
	C1115.361450,685.669922 1113.247559,683.790588 1113.221436,682.695984 
	C1112.972900,672.227295 1113.006348,661.749084 1113.189209,651.277527 
	C1113.207642,650.224060 1114.739624,648.302490 1115.574341,648.299744 
	C1122.013550,648.278076 1128.482666,648.340210 1134.883423,648.973755 
	C1138.834839,649.364868 1141.525146,651.985962 1141.905762,656.220947 
	C1142.323120,660.864563 1142.096680,665.309021 1136.939575,667.575378 
	C1136.211060,667.895569 1135.579346,668.435608 1134.711792,668.997681 
	C1138.124023,674.329529 1141.434448,679.502319 1144.987061,685.053589 
	C1140.093384,686.715942 1136.842285,686.298584 1134.678223,682.031006 
	C1133.331543,679.375244 1131.673340,676.877625 1129.988159,673.978333 
M1120.238647,662.018188 
	C1123.233032,664.537048 1130.348633,664.620239 1132.873657,662.165894 
	C1134.722046,660.369202 1134.333862,655.511902 1131.845215,654.896179 
	C1128.598145,654.092712 1124.939209,653.973083 1121.707275,654.688538 
	C1120.742065,654.902222 1120.614502,658.899536 1120.238647,662.018188 
z"/>
<path fill="#000000" opacity="1.000000" stroke="none" 
	d="
M1120.170898,661.590759 
	C1120.614502,658.899536 1120.742065,654.902222 1121.707275,654.688538 
	C1124.939209,653.973083 1128.598145,654.092712 1131.845215,654.896179 
	C1134.333862,655.511902 1134.722046,660.369202 1132.873657,662.165894 
	C1130.348633,664.620239 1123.233032,664.537048 1120.170898,661.590759 
z"/>
</svg>